<?xml version="1.0" encoding="UTF-8"?>
<svg id="Layer_2" data-name="Layer 2" xmlns="http://www.w3.org/2000/svg" viewBox="0 0 350.95 58.83">
  <defs>
    <style>
      .cls-1 {
        fill: #fff;
        stroke-width: 0px;
      }
    </style>
  </defs>
  <g id="Layer_1-2" data-name="Layer 1">
    <g>
      <g>
        <path class="cls-1" d="m90.92,17.21c-.95-1.08-2.04-1.97-3.27-2.66-2.22-1.24-4.74-1.85-7.54-1.85-3.23,0-6.13.71-8.71,2.14-2.58,1.43-4.6,3.42-6.07,5.97-1.47,2.56-2.2,5.57-2.2,9.05s.73,6.5,2.2,9.05c1.47,2.56,3.49,4.56,6.07,6,2.58,1.45,5.48,2.17,8.71,2.17,2.89,0,5.45-.63,7.67-1.89,1.33-.75,2.47-1.73,3.46-2.94v4.38h7.48V0h-7.79v17.21Zm-1.23,18.24c-.9,1.59-2.1,2.81-3.58,3.65-1.49.84-3.17,1.26-5.06,1.26s-3.57-.42-5.06-1.26c-1.49-.84-2.68-2.05-3.58-3.65-.9-1.59-1.35-3.46-1.35-5.59s.45-4.05,1.35-5.62c.9-1.57,2.09-2.78,3.58-3.61,1.49-.84,3.17-1.26,5.06-1.26s3.57.42,5.06,1.26c1.49.84,2.68,2.04,3.58,3.61.9,1.57,1.35,3.45,1.35,5.62s-.45,4-1.35,5.59Z"/>
        <path class="cls-1" d="m132.4,14.83c-2.56-1.42-5.47-2.14-8.74-2.14s-6.34.73-8.96,2.2c-2.62,1.47-4.67,3.49-6.16,6.07-1.49,2.58-2.23,5.54-2.23,8.89s.76,6.26,2.29,8.86c1.53,2.6,3.69,4.64,6.47,6.13,2.79,1.49,6.04,2.23,9.77,2.23,2.93,0,5.54-.47,7.83-1.41,2.28-.94,4.18-2.29,5.69-4.05l-4.21-4.84c-1.17,1.26-2.51,2.18-4.02,2.77-1.51.59-3.21.88-5.09.88-2.18,0-4.11-.42-5.78-1.26-1.68-.84-2.98-2.03-3.9-3.58-.58-.97-.95-2.05-1.17-3.21h26.31c.04-.38.07-.78.09-1.19.02-.42.03-.8.03-1.13,0-3.52-.73-6.58-2.2-9.18-1.47-2.6-3.48-4.61-6.03-6.03Zm-17.19,8.89c.82-1.49,1.95-2.65,3.39-3.49,1.45-.84,3.13-1.26,5.06-1.26s3.55.42,5,1.26,2.59,1.99,3.43,3.46c.59,1.04.95,2.19,1.1,3.46h-19.07c.18-1.26.53-2.41,1.09-3.43Z"/>
        <polygon class="cls-1" points="160.66 37.95 150.25 13.07 142.08 13.07 156.48 46.64 164.59 46.64 178.98 13.07 171.44 13.07 160.66 37.95"/>
        <path class="cls-1" d="m211.25,14.83c-2.54-1.42-5.46-2.14-8.77-2.14-2.85,0-5.39.62-7.61,1.85-1.35.75-2.52,1.74-3.52,2.96v-4.44h-7.48v45.76h7.86v-16.33c.96,1.09,2.06,1.99,3.3,2.69,2.24,1.26,4.72,1.89,7.45,1.89,3.31,0,6.23-.71,8.77-2.14,2.53-1.42,4.55-3.42,6.03-6,1.49-2.58,2.23-5.6,2.23-9.08s-.74-6.49-2.23-9.05c-1.49-2.56-3.5-4.55-6.03-5.97Zm-1.04,20.62c-.88,1.59-2.06,2.81-3.55,3.65-1.49.84-3.17,1.26-5.06,1.26s-3.58-.42-5.09-1.26c-1.51-.84-2.7-2.05-3.58-3.65s-1.32-3.46-1.32-5.59.44-4.05,1.32-5.62,2.07-2.78,3.58-3.61c1.51-.84,3.21-1.26,5.09-1.26s3.57.42,5.06,1.26c1.49.84,2.67,2.04,3.55,3.61s1.32,3.45,1.32,5.62-.44,4-1.32,5.59Z"/>
        <rect class="cls-1" x="227" width="7.86" height="46.64"/>
        <path class="cls-1" d="m269.27,16.18c-2.66-2.33-6.42-3.49-11.28-3.49-2.68,0-5.27.35-7.76,1.04-2.49.69-4.64,1.73-6.44,3.11l3.08,5.72c1.26-1.05,2.8-1.86,4.62-2.45,1.82-.59,3.68-.88,5.56-.88,2.81,0,4.9.64,6.29,1.92,1.38,1.28,2.07,3.07,2.07,5.37v.5h-8.67c-3.39,0-6.12.44-8.17,1.32-2.05.88-3.53,2.07-4.43,3.58-.9,1.51-1.35,3.21-1.35,5.09s.51,3.66,1.54,5.19c1.03,1.53,2.48,2.72,4.37,3.58s4.09,1.29,6.6,1.29c2.97,0,5.44-.54,7.39-1.63,1.35-.76,2.4-1.74,3.17-2.92v4.11h7.42v-19.67c0-4.86-1.33-8.45-3.99-10.78Zm-7.17,23.85c-1.53.88-3.26,1.32-5.19,1.32s-3.58-.42-4.71-1.26c-1.13-.84-1.7-1.97-1.7-3.39,0-1.26.46-2.32,1.38-3.17.92-.86,2.72-1.29,5.41-1.29h8.11v3.9c-.67,1.72-1.77,3.02-3.3,3.9Z"/>
        <path class="cls-1" d="m293.5,20.62c1.55-.84,3.29-1.26,5.22-1.26,1.68,0,3.24.38,4.68,1.13s2.67,1.93,3.68,3.52l6.03-3.52c-1.3-2.56-3.2-4.49-5.69-5.81-2.49-1.32-5.37-1.98-8.64-1.98-3.52,0-6.65.73-9.4,2.2-2.75,1.47-4.89,3.49-6.44,6.07-1.55,2.58-2.33,5.54-2.33,8.89s.77,6.26,2.33,8.86c1.55,2.6,3.7,4.64,6.44,6.13,2.74,1.49,5.88,2.23,9.4,2.23,3.27,0,6.15-.68,8.64-2.04,2.49-1.36,4.39-3.3,5.69-5.81l-6.03-3.52c-1.01,1.59-2.23,2.77-3.68,3.52-1.45.75-3.01,1.13-4.68,1.13-1.93,0-3.67-.42-5.22-1.26-1.55-.84-2.77-2.04-3.65-3.61-.88-1.57-1.32-3.45-1.32-5.63s.44-4.05,1.32-5.62c.88-1.57,2.1-2.78,3.65-3.61Z"/>
        <path class="cls-1" d="m348.75,20.87c-1.47-2.6-3.48-4.61-6.03-6.03-2.56-1.42-5.47-2.14-8.74-2.14s-6.34.73-8.96,2.2c-2.62,1.47-4.67,3.49-6.16,6.07-1.49,2.58-2.23,5.54-2.23,8.89s.76,6.26,2.29,8.86c1.53,2.6,3.69,4.64,6.47,6.13,2.79,1.49,6.04,2.23,9.77,2.23,2.93,0,5.54-.47,7.83-1.41,2.28-.94,4.18-2.29,5.69-4.05l-4.21-4.84c-1.17,1.26-2.51,2.18-4.02,2.77-1.51.59-3.21.88-5.09.88-2.18,0-4.11-.42-5.78-1.26-1.68-.84-2.98-2.03-3.9-3.58-.58-.97-.95-2.05-1.17-3.21h26.31c.04-.38.07-.78.09-1.19.02-.42.03-.8.03-1.13,0-3.52-.73-6.58-2.2-9.18Zm-23.23,2.86c.82-1.49,1.95-2.65,3.39-3.49,1.45-.84,3.13-1.26,5.06-1.26s3.55.42,5,1.26,2.59,1.99,3.43,3.46c.59,1.04.95,2.19,1.1,3.46h-19.07c.18-1.26.53-2.41,1.09-3.43Z"/>
      </g>
      <path class="cls-1" d="m36.6,42.08h-3.97L45,6.75H0v42.99h51.67V6.75h-2.7l-12.37,35.32Zm-4.84-22.44l-22.33,8.61,22.33,8.61v5.22L3.6,30.95v-5.4l28.16-11.13v5.21Z"/>
    </g>
  </g>
</svg>