<?xml version="1.0" encoding="UTF-8"?>
<svg id="Layer_2" data-name="Layer 2" xmlns="http://www.w3.org/2000/svg" viewBox="0 0 32.66 37.15">
  <defs>
    <style>
      .cls-1 {
        stroke-width: 0px;
      }
    </style>
  </defs>
  <g id="Layer_1-2" data-name="Layer 1">
    <path class="cls-1" d="m32.57,33.03l-5.34-22.65c-.36-1.51-1.7-2.58-3.25-2.58h-1.98v-2.28c0-3.05-2.04-5.53-4.54-5.53h-3.08c-2.51,0-4.55,2.48-4.55,5.53v2.28h-2.67c-1.63,0-3.03,1.18-3.3,2.79L.05,33.25c-.34,2.04,1.23,3.9,3.3,3.9h25.97c2.16,0,3.75-2.01,3.25-4.11ZM12.29,5.53c0-1.39.93-2.53,2.08-2.53h3.08c1.15,0,2.08,1.14,2.08,2.53v2.28h-7.24v-2.28Zm-8.17,27.62l3.59-21.34h2.11v1.76c0,.68.55,1.23,1.23,1.23h.01c.68,0,1.23-.55,1.23-1.23v-1.76h7.24v1.76c0,.68.55,1.23,1.23,1.23s1.23-.55,1.23-1.23v-1.76h1.46l5.03,21.34H4.12Z"/>
  </g>
</svg>